<?xml version="1.0" encoding="utf-8"?>
<!-- Generator: Adobe Illustrator 17.1.0, SVG Export Plug-In . SVG Version: 6.00 Build 0)  -->
<!DOCTYPE svg PUBLIC "-//W3C//DTD SVG 1.1//EN" "http://www.w3.org/Graphics/SVG/1.1/DTD/svg11.dtd">
<svg version="1.1" id="Layer_1" xmlns="http://www.w3.org/2000/svg" xmlns:xlink="http://www.w3.org/1999/xlink" x="0px" y="0px"
	 viewBox="0 0 147 647" enable-background="new 0 0 147 647" xml:space="preserve">
<g>
	<linearGradient id="SVGID_1_" gradientUnits="userSpaceOnUse" x1="39" y1="96.8833" x2="110.6667" y2="96.8833">
		<stop  offset="0.1626" style="stop-color:#FFFFFF"/>
		<stop  offset="1" style="stop-color:#000000"/>
	</linearGradient>
	<path fill="url(#SVGID_1_)" stroke="#010101" stroke-miterlimit="10" d="M110.7,78.3H39l0,31.9c11.1,3.4,22.9,5.2,35.3,5.2
		c12.6,0,25.1-2,36.4-5.6V78.3z"/>
</g>
<rect x="55.1" y="49.8" fill="#9B9B96" stroke="#5A5851" stroke-miterlimit="10" width="40.8" height="3.3"/>
<rect x="55.1" y="53.1" fill="#9B9B96" stroke="#5A5851" stroke-miterlimit="10" width="40.8" height="2.4"/>
<rect x="55.1" y="59.7" fill="#9B9B96" stroke="#5A5151" stroke-miterlimit="10" width="40.8" height="2.7"/>
<rect x="55.1" y="62.4" fill="#9B9B96" stroke="#5A5151" stroke-miterlimit="10" width="40.8" height="2.4"/>
<rect x="67.3" y="31.5" fill="#9B9B96" stroke="#5F5D4B" stroke-miterlimit="10" width="16.8" height="18.3"/>
<ellipse fill="#9B9B96" stroke="#5F5D4B" stroke-miterlimit="10" cx="75.4" cy="27" rx="3.6" ry="3.4"/>
<line fill="none" stroke="#5A5151" stroke-miterlimit="10" x1="75.4" y1="30.3" x2="75.4" y2="31.5"/>
<path fill="none" stroke="#5A5151" stroke-miterlimit="10" d="M104.7,33.4"/>
<path fill="none" stroke="#5A5151" stroke-miterlimit="10" d="M119.1,39"/>
<path fill="none" stroke="#5A5151" stroke-miterlimit="10" d="M104.7,44.5"/>
<g>
	<linearGradient id="SVGID_2_" gradientUnits="userSpaceOnUse" x1="97.6646" y1="38.9595" x2="86.2896" y2="38.8762">
		<stop  offset="0.1626" style="stop-color:#FFFFFF"/>
		<stop  offset="1" style="stop-color:#000000"/>
	</linearGradient>
	<path fill="url(#SVGID_2_)" stroke="#5F5D4B" stroke-miterlimit="10" d="M97.4,34.2c-4.3,1-7,2.7-7,4.8c0,2.1,2.9,3.8,7.2,4.8l0,0
		v1.2H84v-12h13.6l0,1.3"/>
</g>
<g>
	<path fill="#716B6B" stroke="#010101" stroke-miterlimit="10" d="M75,115.5c-5.9,0.1-4.9,0.1-11.3-0.5v327.6h11.5L75,115.5z"/>
</g>
<g>
	<polygon fill="#948F8F" stroke="#5A5851" stroke-miterlimit="10" points="75.2,480.1 58.6,475.4 58.6,457.3 61.5,454.3 61.5,448.7 
		63.7,448.7 63.7,442.6 75.2,442.6 	"/>
</g>
<g>
	<path fill="#333333" stroke="#010101" stroke-miterlimit="10" d="M86.6,442.6l-2.8,2.7l0.1-330.5c2.3,0,2.9-0.1,5.2-0.5L89,448.8
		h-2.4V442.6z"/>
</g>
<line fill="none" stroke="#5A5851" stroke-miterlimit="10" x1="57.6" y1="55.4" x2="57.6" y2="59.7"/>
<line fill="none" stroke="#5A5851" stroke-miterlimit="10" x1="60.7" y1="55.4" x2="60.7" y2="59.7"/>
<line fill="none" stroke="#5A5851" stroke-miterlimit="10" x1="63.3" y1="55.4" x2="63.3" y2="59.7"/>
<line fill="none" stroke="#5A5851" stroke-miterlimit="10" x1="65.9" y1="55.4" x2="65.9" y2="59.7"/>
<line fill="none" stroke="#5A5851" stroke-miterlimit="10" x1="69" y1="55.4" x2="69" y2="59.7"/>
<line fill="none" stroke="#5A5851" stroke-miterlimit="10" x1="73.8" y1="55.4" x2="73.8" y2="59.7"/>
<line fill="none" stroke="#5A5851" stroke-miterlimit="10" x1="76.9" y1="55.4" x2="76.9" y2="59.7"/>
<line fill="none" stroke="#5A5851" stroke-miterlimit="10" x1="79.9" y1="55.4" x2="79.9" y2="59.7"/>
<line fill="none" stroke="#5A5851" stroke-miterlimit="10" x1="82.7" y1="55.4" x2="82.7" y2="59.7"/>
<line fill="none" stroke="#5A5851" stroke-miterlimit="10" x1="85.6" y1="55.4" x2="85.6" y2="59.7"/>
<line fill="none" stroke="#5A5851" stroke-miterlimit="10" x1="89.8" y1="55.4" x2="89.8" y2="59.7"/>
<line fill="none" stroke="#5A5851" stroke-miterlimit="10" x1="92.4" y1="55.4" x2="92.4" y2="59.7"/>
<line fill="none" stroke="#5A5851" stroke-miterlimit="10" x1="95.5" y1="55.9" x2="95.5" y2="59.7"/>
<line fill="none" stroke="#5A5851" stroke-miterlimit="10" x1="55.8" y1="55.4" x2="55.8" y2="60.2"/>
<line fill="none" stroke="#5A5851" stroke-miterlimit="10" x1="55.8" y1="64.8" x2="55.8" y2="68.7"/>
<line fill="none" stroke="#5A5851" stroke-miterlimit="10" x1="57.6" y1="64.8" x2="57.6" y2="68.7"/>
<line fill="none" stroke="#5A5851" stroke-miterlimit="10" x1="60.7" y1="65.1" x2="60.7" y2="68.7"/>
<line fill="none" stroke="#5A5851" stroke-miterlimit="10" x1="67.6" y1="64.8" x2="67.6" y2="68.7"/>
<line fill="none" stroke="#5A5851" stroke-miterlimit="10" x1="71.4" y1="65.1" x2="71.4" y2="68.4"/>
<line fill="none" stroke="#5A5851" stroke-miterlimit="10" x1="73.8" y1="65.1" x2="73.8" y2="68.4"/>
<line fill="none" stroke="#5A5851" stroke-miterlimit="10" x1="76.9" y1="65.1" x2="76.9" y2="68.4"/>
<line fill="none" stroke="#5A5851" stroke-miterlimit="10" x1="79.9" y1="65.1" x2="79.9" y2="68.7"/>
<line fill="none" stroke="#5A5851" stroke-miterlimit="10" x1="83.7" y1="64.8" x2="83.7" y2="68.7"/>
<line fill="none" stroke="#5A5851" stroke-miterlimit="10" x1="87.9" y1="64.8" x2="87.9" y2="68.4"/>
<line fill="none" stroke="#5A5851" stroke-miterlimit="10" x1="90.4" y1="65.1" x2="90.4" y2="68.4"/>
<line fill="none" stroke="#5A5851" stroke-miterlimit="10" x1="93.3" y1="65.1" x2="93.3" y2="68.4"/>
<linearGradient id="SVGID_3_" gradientUnits="userSpaceOnUse" x1="76.6667" y1="73.4925" x2="96.6729" y2="73.4925">
	<stop  offset="0" style="stop-color:#FFFFFF"/>
	<stop  offset="1" style="stop-color:#000000"/>
</linearGradient>
<rect x="22.1" y="68.7" fill="url(#SVGID_3_)" stroke="#010101" stroke-miterlimit="10" width="106.5" height="9.6"/>
<g>
	<linearGradient id="SVGID_4_" gradientUnits="userSpaceOnUse" x1="107.9973" y1="330.9015" x2="110.6667" y2="330.9015">
		<stop  offset="0" style="stop-color:#FFFFFF"/>
		<stop  offset="1" style="stop-color:#000000"/>
	</linearGradient>
	<polygon fill="url(#SVGID_4_)" stroke="#010101" stroke-miterlimit="10" points="108,551.9 108,111.3 110.7,109.9 110.7,551.9 	"/>
</g>
<line fill="none" stroke="#010101" stroke-miterlimit="10" x1="104.8" y1="519.6" x2="114.1" y2="519.6"/>
<line fill="none" stroke="#010101" stroke-miterlimit="10" x1="104.8" y1="521.3" x2="114.1" y2="521.3"/>
<line fill="none" stroke="#010101" stroke-miterlimit="10" x1="104.8" y1="498.2" x2="114.1" y2="498.2"/>
<line fill="none" stroke="#010101" stroke-miterlimit="10" x1="104.8" y1="500" x2="114.1" y2="500"/>
<line fill="none" stroke="#010101" stroke-miterlimit="10" x1="35.9" y1="498.2" x2="45.3" y2="498.2"/>
<line fill="none" stroke="#010101" stroke-miterlimit="10" x1="35.9" y1="500" x2="45.3" y2="500"/>
<line fill="none" stroke="#010101" stroke-miterlimit="10" x1="35.9" y1="518.7" x2="45.3" y2="518.7"/>
<line fill="none" stroke="#010101" stroke-miterlimit="10" x1="35.9" y1="520.4" x2="45.3" y2="520.4"/>
<g>
	<g>
		<g>
			<g>
				<line fill="none" stroke="#010101" stroke-miterlimit="10" x1="110.5" y1="551.9" x2="113.1" y2="553.5"/>
				<line fill="none" stroke="#010101" stroke-miterlimit="10" x1="115.1" y1="554.6" x2="117.7" y2="556.1"/>
				<line fill="none" stroke="#010101" stroke-miterlimit="10" x1="118.6" y1="557.7" x2="118.6" y2="560.7"/>
				<line fill="none" stroke="#010101" stroke-miterlimit="10" x1="118.6" y1="562.4" x2="118.6" y2="565.4"/>
				<line fill="none" stroke="#010101" stroke-miterlimit="10" x1="118.6" y1="567.6" x2="118.6" y2="570.7"/>
				<line fill="none" stroke="#010101" stroke-miterlimit="10" x1="118.6" y1="572.7" x2="118.6" y2="575.8"/>
				<line fill="none" stroke="#010101" stroke-miterlimit="10" x1="118.6" y1="578" x2="118.6" y2="581"/>
				<line fill="none" stroke="#010101" stroke-miterlimit="10" x1="118.6" y1="583.2" x2="118.6" y2="586.3"/>
				<line fill="none" stroke="#010101" stroke-miterlimit="10" x1="118.6" y1="588.4" x2="118.6" y2="591.4"/>
				<line fill="none" stroke="#010101" stroke-miterlimit="10" x1="118.6" y1="593.9" x2="118.6" y2="596.9"/>
				<line fill="none" stroke="#010101" stroke-miterlimit="10" x1="118.6" y1="599.1" x2="118.6" y2="602.2"/>
				<line fill="none" stroke="#010101" stroke-miterlimit="10" x1="118.6" y1="604.3" x2="118.6" y2="607.3"/>
				<line fill="none" stroke="#010101" stroke-miterlimit="10" x1="118.6" y1="610.1" x2="118.6" y2="613.1"/>
				<line fill="none" stroke="#010101" stroke-miterlimit="10" x1="118.6" y1="615.3" x2="118.6" y2="618.4"/>
				<line fill="none" stroke="#010101" stroke-miterlimit="10" x1="118.6" y1="620.4" x2="118.6" y2="623.5"/>
				<polyline fill="none" stroke="#010101" stroke-miterlimit="10" points="118.6,625.1 118.6,626.8 117.3,626.8 				"/>
				<line fill="none" stroke="#010101" stroke-miterlimit="10" x1="115" y1="626.8" x2="112" y2="626.8"/>
				<line fill="none" stroke="#010101" stroke-miterlimit="10" x1="109.9" y1="626.8" x2="106.9" y2="626.8"/>
				<line fill="none" stroke="#010101" stroke-miterlimit="10" x1="104.7" y1="626.8" x2="101.6" y2="626.8"/>
				<line fill="none" stroke="#010101" stroke-miterlimit="10" x1="99.4" y1="626.8" x2="96.4" y2="626.8"/>
				<line fill="none" stroke="#010101" stroke-miterlimit="10" x1="94.3" y1="626.8" x2="91.3" y2="626.8"/>
				<line fill="none" stroke="#010101" stroke-miterlimit="10" x1="88.8" y1="626.8" x2="85.7" y2="626.8"/>
				<line fill="none" stroke="#010101" stroke-miterlimit="10" x1="83.5" y1="626.8" x2="80.5" y2="626.8"/>
				<line fill="none" stroke="#010101" stroke-miterlimit="10" x1="78.4" y1="626.8" x2="75.4" y2="626.8"/>
				<line fill="none" stroke="#010101" stroke-miterlimit="10" x1="73.4" y1="626.8" x2="70.4" y2="626.8"/>
				<line fill="none" stroke="#010101" stroke-miterlimit="10" x1="68.2" y1="626.8" x2="65.1" y2="626.8"/>
				<line fill="none" stroke="#010101" stroke-miterlimit="10" x1="63.1" y1="626.8" x2="60" y2="626.8"/>
				<line fill="none" stroke="#010101" stroke-miterlimit="10" x1="58.4" y1="626.8" x2="55.3" y2="626.8"/>
				<line fill="none" stroke="#010101" stroke-miterlimit="10" x1="53.1" y1="626.8" x2="50.1" y2="626.8"/>
				<line fill="none" stroke="#010101" stroke-miterlimit="10" x1="48" y1="626.8" x2="44.9" y2="626.8"/>
				<line fill="none" stroke="#010101" stroke-miterlimit="10" x1="42.7" y1="626.8" x2="39.7" y2="626.8"/>
				<line fill="none" stroke="#010101" stroke-miterlimit="10" x1="37.5" y1="626.8" x2="34.4" y2="626.8"/>
				<polyline fill="none" stroke="#010101" stroke-miterlimit="10" points="32.4,626.8 30.8,626.8 30.8,625.4 				"/>
				<line fill="none" stroke="#010101" stroke-miterlimit="10" x1="30.8" y1="622.9" x2="30.8" y2="619.8"/>
				<line fill="none" stroke="#010101" stroke-miterlimit="10" x1="30.8" y1="617.6" x2="30.8" y2="614.6"/>
				<line fill="none" stroke="#010101" stroke-miterlimit="10" x1="30.8" y1="612.5" x2="30.8" y2="609.5"/>
				<line fill="none" stroke="#010101" stroke-miterlimit="10" x1="30.8" y1="606.7" x2="30.8" y2="603.7"/>
				<line fill="none" stroke="#010101" stroke-miterlimit="10" x1="30.8" y1="601.4" x2="30.8" y2="598.4"/>
				<line fill="none" stroke="#010101" stroke-miterlimit="10" x1="30.8" y1="596.3" x2="30.8" y2="593.3"/>
				<line fill="none" stroke="#010101" stroke-miterlimit="10" x1="30.8" y1="591.6" x2="30.8" y2="588.6"/>
				<line fill="none" stroke="#010101" stroke-miterlimit="10" x1="30.8" y1="586.4" x2="30.8" y2="583.3"/>
				<line fill="none" stroke="#010101" stroke-miterlimit="10" x1="30.8" y1="581.3" x2="30.8" y2="578.2"/>
				<line fill="none" stroke="#010101" stroke-miterlimit="10" x1="30.8" y1="576" x2="30.8" y2="573"/>
				<line fill="none" stroke="#010101" stroke-miterlimit="10" x1="30.8" y1="570.7" x2="30.8" y2="567.7"/>
				<line fill="none" stroke="#010101" stroke-miterlimit="10" x1="30.8" y1="565.6" x2="30.8" y2="562.6"/>
				<line fill="none" stroke="#010101" stroke-miterlimit="10" x1="30.8" y1="560.1" x2="30.8" y2="557.1"/>
				<line fill="none" stroke="#010101" stroke-miterlimit="10" x1="31.6" y1="555.4" x2="34.4" y2="554.1"/>
				<line fill="none" stroke="#010101" stroke-miterlimit="10" x1="36.2" y1="553.2" x2="39" y2="551.9"/>
			</g>
		</g>
	</g>
</g>
<g>
	<polygon fill="#989898" stroke="#5A5851" stroke-miterlimit="10" points="88.2,448.8 86.6,448.8 86.6,442.6 83,446.1 83,459 
		87.8,459 87.8,467.3 85.4,467.3 85.4,470.6 87.8,470.6 87.8,483.3 92,480.1 92,457.2 88.2,454.1 	"/>
</g>
<line fill="none" stroke="#5A5851" stroke-miterlimit="10" x1="75.2" y1="480.1" x2="87.5" y2="483.8"/>
<linearGradient id="SVGID_5_" gradientUnits="userSpaceOnUse" x1="107.7181" y1="504.7425" x2="134.0541" y2="504.7425">
	<stop  offset="0" style="stop-color:#000000"/>
	<stop  offset="1" style="stop-color:#FFFFFF"/>
</linearGradient>
<rect x="108.2" y="504.3" fill="#A6A284" stroke="url(#SVGID_5_)" stroke-miterlimit="10" width="25.3" height="0.9"/>
<linearGradient id="SVGID_6_" gradientUnits="userSpaceOnUse" x1="107.7181" y1="508.8623" x2="134.0541" y2="508.8623">
	<stop  offset="0" style="stop-color:#000000"/>
	<stop  offset="1" style="stop-color:#FFFFFF"/>
</linearGradient>
<rect x="108.2" y="508.4" fill="#A6A284" stroke="url(#SVGID_6_)" stroke-miterlimit="10" width="25.3" height="0.9"/>
<linearGradient id="SVGID_7_" gradientUnits="userSpaceOnUse" x1="107.7181" y1="512.7425" x2="134.0541" y2="512.7425">
	<stop  offset="0" style="stop-color:#000000"/>
	<stop  offset="1" style="stop-color:#FFFFFF"/>
</linearGradient>
<rect x="108.2" y="512.3" fill="#A6A284" stroke="url(#SVGID_7_)" stroke-miterlimit="10" width="25.3" height="0.9"/>
<linearGradient id="SVGID_8_" gradientUnits="userSpaceOnUse" x1="107.7181" y1="516.2217" x2="134.0541" y2="516.2217">
	<stop  offset="0" style="stop-color:#000000"/>
	<stop  offset="1" style="stop-color:#FFFFFF"/>
</linearGradient>
<rect x="108.2" y="515.8" fill="#A6A284" stroke="url(#SVGID_8_)" stroke-miterlimit="10" width="25.3" height="0.9"/>
<linearGradient id="SVGID_9_" gradientUnits="userSpaceOnUse" x1="15.6125" y1="504.7425" x2="41.9486" y2="504.7425">
	<stop  offset="0" style="stop-color:#FFFFFF"/>
	<stop  offset="1" style="stop-color:#000000"/>
</linearGradient>
<rect x="16.1" y="504.3" fill="#A6A284" stroke="url(#SVGID_9_)" stroke-miterlimit="10" width="25.3" height="0.9"/>
<linearGradient id="SVGID_10_" gradientUnits="userSpaceOnUse" x1="15.6125" y1="508.8623" x2="41.9486" y2="508.8623">
	<stop  offset="0" style="stop-color:#FFFFFF"/>
	<stop  offset="1" style="stop-color:#000000"/>
</linearGradient>
<rect x="16.1" y="508.4" fill="#A6A284" stroke="url(#SVGID_10_)" stroke-miterlimit="10" width="25.3" height="0.9"/>
<linearGradient id="SVGID_11_" gradientUnits="userSpaceOnUse" x1="15.6125" y1="512.7425" x2="41.9486" y2="512.7425">
	<stop  offset="0" style="stop-color:#FFFFFF"/>
	<stop  offset="1" style="stop-color:#000000"/>
</linearGradient>
<rect x="16.1" y="512.3" fill="#A6A284" stroke="url(#SVGID_11_)" stroke-miterlimit="10" width="25.3" height="0.9"/>
<linearGradient id="SVGID_12_" gradientUnits="userSpaceOnUse" x1="15.6125" y1="516.2217" x2="41.9486" y2="516.2217">
	<stop  offset="0" style="stop-color:#FFFFFF"/>
	<stop  offset="1" style="stop-color:#000000"/>
</linearGradient>
<rect x="16.1" y="515.8" fill="#A6A284" stroke="url(#SVGID_12_)" stroke-miterlimit="10" width="25.3" height="0.9"/>
<g>
	<linearGradient id="SVGID_13_" gradientUnits="userSpaceOnUse" x1="38.9745" y1="331.1988" x2="41.375" y2="331.1988">
		<stop  offset="0" style="stop-color:#FFFFFF"/>
		<stop  offset="1" style="stop-color:#000000"/>
	</linearGradient>
	<polygon fill="url(#SVGID_13_)" stroke="#010101" stroke-miterlimit="10" points="39,551.9 39,110.5 41.3,111.3 41.4,551.9 	"/>
</g>
</svg>
